<?xml version="1.0" encoding="UTF-8"?>
<svg xmlns="http://www.w3.org/2000/svg" viewBox="0 0 800 600" width="800" height="600">
  <defs>
    <linearGradient id="grad" x1="0%" y1="0%" x2="100%" y2="100%">
      <stop offset="0%" stop-color="#4cc9f0" />
      <stop offset="100%" stop-color="#f72585" />
    </linearGradient>
  </defs>
  <rect x="0" y="0" width="800" height="600" fill="url(#grad)" rx="40" />
  <path d="M9.663 17h4.674M12 3v1m6.364 1.636l-.707.707M21 12h-1M4 12H3m3.343-5.657l-.707-.707m2.828 9.9a5 5 0 117.072 0l-.548.547A3.374 3.374 0 0014 18.469V19a2 2 0 11-4 0v-.531c0-.895-.356-1.754-.988-2.386l-.548-.547z" fill="white" opacity="0.9" transform="translate(300, 200) scale(8)" stroke="white" stroke-width="1" />
</svg>
