<?xml version="1.0" encoding="UTF-8"?>
<svg xmlns="http://www.w3.org/2000/svg" viewBox="0 0 800 600" width="800" height="600">
  <defs>
    <linearGradient id="grad" x1="0%" y1="0%" x2="100%" y2="100%">
      <stop offset="0%" stop-color="#f72585" />
      <stop offset="100%" stop-color="#7209b7" />
    </linearGradient>
  </defs>
  <rect x="0" y="0" width="800" height="600" fill="url(#grad)" rx="40" />
  <path d="M12 8c-1.657 0-3 .895-3 2s1.343 2 3 2 3 .895 3 2-1.343 2-3 2m0-8c1.11 0 2.08.402 2.599 1M12 8V7m0 1v8m0 0v1m0-1c-1.11 0-2.08-.402-2.599-1M21 12a9 9 0 11-18 0 9 9 0 0118 0z" fill="white" opacity="0.9" transform="translate(300, 200) scale(8)" stroke="white" stroke-width="1" />
</svg>
